<svg xmlns="http://www.w3.org/2000/svg" xmlns:xlink="http://www.w3.org/1999/xlink" width="200" zoomAndPan="magnify" viewBox="0 0 150 149.999998" height="200" preserveAspectRatio="xMidYMid meet" version="1.0"><defs><clipPath id="be38706aee"><path d="M 30.246094 36.171875 L 120 36.171875 L 120 150 L 30.246094 150 Z M 30.246094 36.171875 " clip-rule="nonzero"/></clipPath><clipPath id="dbe7956581"><path d="M 63.8125 20.476562 L 76.144531 20.476562 L 76.144531 32.808594 L 63.8125 32.808594 Z M 63.8125 20.476562 " clip-rule="nonzero"/></clipPath><clipPath id="a8f449b32c"><path d="M 75.492188 0 L 95.410156 0 L 95.410156 18.972656 L 75.492188 18.972656 Z M 75.492188 0 " clip-rule="nonzero"/></clipPath></defs><g clip-path="url(#be38706aee)"><path fill="#000000" d="M 118.066406 130.402344 L 91.085938 83.476562 L 91.085938 53.46875 L 92.949219 53.46875 C 93.511719 53.46875 94.070312 53.417969 94.625 53.3125 C 95.179688 53.203125 95.71875 53.042969 96.238281 52.828125 C 96.761719 52.613281 97.257812 52.351562 97.726562 52.035156 C 98.195312 51.722656 98.632812 51.367188 99.03125 50.96875 C 99.433594 50.570312 99.789062 50.136719 100.101562 49.664062 C 100.417969 49.195312 100.683594 48.699219 100.898438 48.175781 C 101.117188 47.652344 101.28125 47.113281 101.390625 46.558594 C 101.5 46.003906 101.554688 45.441406 101.554688 44.875 C 101.554688 44.308594 101.5 43.75 101.390625 43.195312 C 101.28125 42.636719 101.117188 42.097656 100.898438 41.578125 C 100.683594 41.054688 100.417969 40.558594 100.101562 40.085938 C 99.789062 39.617188 99.433594 39.183594 99.03125 38.78125 C 98.632812 38.382812 98.195312 38.027344 97.726562 37.714844 C 97.257812 37.402344 96.761719 37.136719 96.238281 36.921875 C 95.71875 36.710938 95.179688 36.546875 94.625 36.441406 C 94.070312 36.332031 93.511719 36.28125 92.949219 36.285156 L 57.6875 36.285156 C 57.125 36.289062 56.574219 36.34375 56.023438 36.457031 C 55.476562 36.570312 54.941406 36.734375 54.425781 36.953125 C 53.910156 37.171875 53.421875 37.4375 52.957031 37.75 C 52.492188 38.0625 52.0625 38.417969 51.667969 38.820312 C 51.273438 39.21875 50.921875 39.648438 50.613281 40.117188 C 50.300781 40.585938 50.039062 41.078125 49.828125 41.597656 C 49.613281 42.117188 49.453125 42.65625 49.34375 43.207031 C 49.234375 43.757812 49.179688 44.3125 49.179688 44.875 C 49.179688 45.4375 49.234375 45.996094 49.34375 46.546875 C 49.453125 47.097656 49.613281 47.632812 49.828125 48.152344 C 50.039062 48.671875 50.300781 49.164062 50.613281 49.632812 C 50.921875 50.101562 51.273438 50.535156 51.667969 50.933594 C 52.0625 51.332031 52.492188 51.6875 52.957031 52.003906 C 53.421875 52.316406 53.910156 52.582031 54.425781 52.800781 C 54.941406 53.015625 55.476562 53.179688 56.023438 53.292969 C 56.574219 53.40625 57.125 53.464844 57.6875 53.46875 L 59.550781 53.46875 L 59.550781 83.476562 L 32.570312 130.402344 C 32.285156 130.894531 32.035156 131.402344 31.820312 131.929688 C 31.601562 132.453125 31.421875 132.992188 31.273438 133.539062 C 31.128906 134.089844 31.019531 134.644531 30.945312 135.210938 C 30.871094 135.773438 30.832031 136.339844 30.832031 136.90625 C 30.832031 137.476562 30.871094 138.042969 30.945312 138.605469 C 31.019531 139.167969 31.128906 139.726562 31.273438 140.273438 C 31.421875 140.824219 31.601562 141.359375 31.820312 141.886719 C 32.035156 142.410156 32.285156 142.921875 32.570312 143.414062 C 32.851562 143.90625 33.167969 144.375 33.511719 144.828125 C 33.855469 145.277344 34.226562 145.707031 34.628906 146.105469 C 35.027344 146.507812 35.453125 146.882812 35.902344 147.230469 C 36.351562 147.574219 36.820312 147.890625 37.3125 148.175781 C 37.800781 148.460938 38.308594 148.710938 38.832031 148.925781 C 39.355469 149.144531 39.890625 149.328125 40.4375 149.476562 C 40.984375 149.621094 41.539062 149.734375 42.097656 149.808594 C 42.660156 149.882812 43.222656 149.917969 43.789062 149.917969 L 106.84375 149.917969 C 107.410156 149.917969 107.972656 149.882812 108.535156 149.808594 C 109.097656 149.734375 109.652344 149.621094 110.199219 149.476562 C 110.746094 149.328125 111.277344 149.144531 111.800781 148.925781 C 112.324219 148.710938 112.832031 148.460938 113.324219 148.175781 C 113.8125 147.890625 114.28125 147.574219 114.730469 147.230469 C 115.179688 146.882812 115.605469 146.507812 116.003906 146.105469 C 116.40625 145.707031 116.777344 145.277344 117.125 144.828125 C 117.46875 144.375 117.78125 143.90625 118.066406 143.414062 C 118.347656 142.921875 118.597656 142.410156 118.816406 141.886719 C 119.03125 141.359375 119.214844 140.824219 119.359375 140.273438 C 119.507812 139.726562 119.617188 139.167969 119.691406 138.605469 C 119.765625 138.042969 119.800781 137.476562 119.800781 136.90625 C 119.800781 136.339844 119.765625 135.773438 119.691406 135.210938 C 119.617188 134.644531 119.507812 134.089844 119.359375 133.539062 C 119.214844 132.992188 119.03125 132.453125 118.816406 131.929688 C 118.597656 131.402344 118.347656 130.894531 118.066406 130.402344 Z M 57.6875 48.472656 C 57.210938 48.472656 56.753906 48.382812 56.316406 48.199219 C 55.875 48.019531 55.488281 47.757812 55.152344 47.421875 C 54.816406 47.082031 54.554688 46.695312 54.375 46.253906 C 54.191406 45.8125 54.101562 45.351562 54.101562 44.875 C 54.101562 44.398438 54.191406 43.941406 54.375 43.5 C 54.554688 43.058594 54.816406 42.667969 55.152344 42.332031 C 55.488281 41.996094 55.875 41.734375 56.316406 41.550781 C 56.753906 41.371094 57.210938 41.277344 57.6875 41.28125 L 92.949219 41.28125 C 93.421875 41.277344 93.878906 41.371094 94.320312 41.550781 C 94.757812 41.734375 95.144531 41.996094 95.484375 42.332031 C 95.820312 42.667969 96.078125 43.058594 96.257812 43.5 C 96.441406 43.941406 96.53125 44.398438 96.53125 44.875 C 96.53125 45.351562 96.441406 45.8125 96.257812 46.253906 C 96.078125 46.695312 95.820312 47.082031 95.484375 47.421875 C 95.144531 47.757812 94.757812 48.019531 94.320312 48.199219 C 93.878906 48.382812 93.421875 48.472656 92.949219 48.472656 Z M 113.757812 140.914062 C 113.410156 141.527344 112.988281 142.085938 112.496094 142.582031 C 112 143.082031 111.449219 143.507812 110.84375 143.863281 C 110.234375 144.214844 109.589844 144.480469 108.914062 144.660156 C 108.234375 144.839844 107.546875 144.929688 106.84375 144.925781 L 43.789062 144.925781 C 43.089844 144.925781 42.402344 144.835938 41.722656 144.652344 C 41.046875 144.46875 40.40625 144.203125 39.796875 143.851562 C 39.191406 143.5 38.640625 143.074219 38.144531 142.578125 C 37.648438 142.078125 37.226562 141.527344 36.875 140.917969 C 36.527344 140.308594 36.261719 139.664062 36.078125 138.984375 C 35.898438 138.304688 35.804688 137.613281 35.808594 136.910156 C 35.808594 136.207031 35.898438 135.511719 36.078125 134.832031 C 36.261719 134.152344 36.527344 133.507812 36.875 132.902344 L 64.523438 84.816406 L 64.523438 53.46875 L 86.109375 53.46875 L 86.109375 84.8125 L 113.757812 132.898438 C 114.113281 133.507812 114.382812 134.152344 114.566406 134.832031 C 114.75 135.511719 114.839844 136.203125 114.839844 136.90625 C 114.839844 137.613281 114.75 138.304688 114.566406 138.984375 C 114.382812 139.664062 114.113281 140.308594 113.757812 140.914062 Z M 113.757812 140.914062 " fill-opacity="1" fill-rule="nonzero"/></g><path fill="#000000" d="M 92.269531 106.308594 L 92.054688 105.933594 C 90.640625 105.71875 89.214844 105.613281 87.78125 105.613281 C 83.09375 105.605469 78.671875 106.699219 74.523438 108.894531 C 74.480469 108.917969 74.441406 108.941406 74.398438 108.964844 C 74.355469 108.984375 74.316406 109.007812 74.273438 109.03125 C 71.351562 110.570312 68.257812 111.570312 64.992188 112.035156 C 61.726562 112.496094 58.476562 112.394531 55.246094 111.726562 L 54.9375 112.261719 L 41.527344 135.59375 C 41.410156 135.792969 41.324219 136.003906 41.265625 136.226562 C 41.207031 136.449219 41.175781 136.675781 41.175781 136.90625 C 41.175781 137.136719 41.207031 137.363281 41.265625 137.585938 C 41.324219 137.808594 41.410156 138.019531 41.527344 138.21875 C 41.640625 138.421875 41.78125 138.601562 41.941406 138.765625 C 42.105469 138.925781 42.285156 139.066406 42.484375 139.183594 C 42.683594 139.296875 42.894531 139.386719 43.117188 139.445312 C 43.335938 139.503906 43.5625 139.535156 43.792969 139.535156 L 106.84375 139.535156 C 107.074219 139.535156 107.296875 139.503906 107.519531 139.445312 C 107.742188 139.386719 107.953125 139.296875 108.152344 139.183594 C 108.351562 139.066406 108.53125 138.929688 108.695312 138.765625 C 108.855469 138.601562 108.996094 138.421875 109.109375 138.21875 C 109.226562 138.019531 109.3125 137.808594 109.371094 137.585938 C 109.429688 137.363281 109.460938 137.136719 109.460938 136.90625 C 109.460938 136.675781 109.429688 136.449219 109.371094 136.226562 C 109.3125 136.003906 109.226562 135.792969 109.109375 135.59375 Z M 92.269531 106.308594 " fill-opacity="1" fill-rule="nonzero"/><g clip-path="url(#dbe7956581)"><path fill="#2f3954" d="M 75.867188 24.046875 C 75.652344 23.375 75.359375 22.796875 74.976562 22.375 C 74.785156 22.152344 74.554688 21.925781 74.300781 21.75 C 74.085938 21.59375 73.832031 21.460938 73.601562 21.347656 C 73.429688 21.28125 73.261719 21.214844 73.113281 21.148438 C 73.007812 21.101562 72.902344 21.058594 72.796875 21.011719 L 72.667969 20.945312 C 72.476562 20.855469 72.265625 20.769531 72.054688 20.699219 C 71.738281 20.632812 71.417969 20.589844 71.125 20.546875 C 70.847656 20.5 70.574219 20.5 70.253906 20.476562 C 70.191406 20.476562 70.105469 20.476562 70.042969 20.476562 C 69.578125 20.476562 69.089844 20.523438 68.519531 20.613281 C 68.03125 20.679688 67.523438 20.8125 67.035156 21.011719 C 66.78125 21.101562 66.527344 21.214844 66.316406 21.347656 C 66.085938 21.480469 65.851562 21.683594 65.640625 21.925781 C 65.429688 22.195312 65.238281 22.394531 65.089844 22.617188 C 65.027344 22.730469 64.941406 22.839844 64.878906 22.953125 C 64.835938 23.019531 64.792969 23.085938 64.75 23.152344 C 64.644531 23.332031 64.539062 23.488281 64.476562 23.667969 C 64.390625 23.84375 64.304688 24.066406 64.242188 24.3125 C 64.199219 24.492188 64.15625 24.671875 64.136719 24.847656 C 64.117188 24.894531 64.117188 24.960938 64.09375 25.003906 C 64.03125 25.292969 63.988281 25.585938 63.945312 25.984375 C 63.882812 26.542969 63.859375 27.125 63.902344 27.769531 C 63.925781 28.058594 63.945312 28.417969 64.03125 28.75 C 64.117188 29.0625 64.222656 29.375 64.371094 29.664062 C 64.496094 29.910156 64.664062 30.179688 64.898438 30.46875 C 65.027344 30.644531 65.195312 30.800781 65.34375 30.957031 L 65.46875 31.09375 C 65.871094 31.515625 66.359375 31.871094 66.953125 32.183594 C 67.226562 32.320312 67.523438 32.429688 67.882812 32.542969 C 68.222656 32.632812 68.582031 32.699219 68.859375 32.742188 C 69.113281 32.785156 69.386719 32.785156 69.746094 32.808594 C 69.832031 32.808594 69.894531 32.808594 69.980469 32.808594 C 70.042969 32.808594 70.105469 32.808594 70.171875 32.808594 C 70.382812 32.808594 70.574219 32.765625 70.722656 32.742188 C 70.996094 32.699219 71.269531 32.632812 71.566406 32.519531 C 71.863281 32.429688 72.160156 32.273438 72.4375 32.140625 C 72.5625 32.074219 72.710938 32.007812 72.859375 31.917969 C 72.964844 31.851562 73.070312 31.785156 73.15625 31.714844 L 73.21875 31.671875 C 73.453125 31.492188 73.683594 31.292969 73.980469 31.003906 C 74.234375 30.757812 74.425781 30.535156 74.59375 30.335938 C 74.828125 30.066406 74.996094 29.730469 75.167969 29.441406 C 75.335938 29.128906 75.464844 28.796875 75.589844 28.484375 C 75.695312 28.214844 75.800781 27.925781 75.867188 27.660156 C 75.949219 27.347656 75.992188 27.011719 76.035156 26.699219 C 76.054688 26.433594 76.078125 26.140625 76.097656 25.808594 C 76.097656 25.449219 76.054688 25.09375 76.015625 24.804688 C 76.015625 24.582031 75.949219 24.335938 75.867188 24.046875 Z M 75.867188 24.046875 " fill-opacity="1" fill-rule="nonzero"/></g><g clip-path="url(#a8f449b32c)"><path fill="#2f3954" d="M 94.949219 5.488281 C 94.609375 4.460938 94.128906 3.566406 93.515625 2.914062 C 93.207031 2.574219 92.832031 2.230469 92.421875 1.957031 C 92.082031 1.714844 91.671875 1.507812 91.292969 1.339844 C 91.019531 1.234375 90.746094 1.132812 90.507812 1.027344 C 90.335938 0.960938 90.167969 0.890625 89.996094 0.824219 L 89.792969 0.71875 C 89.484375 0.582031 89.140625 0.445312 88.800781 0.34375 C 88.289062 0.238281 87.773438 0.171875 87.296875 0.101562 C 86.851562 0.0351562 86.410156 0.0351562 85.894531 0 C 85.792969 0 85.65625 0 85.554688 0 C 84.804688 0 84.015625 0.0703125 83.09375 0.207031 C 82.308594 0.308594 81.488281 0.515625 80.703125 0.824219 C 80.292969 0.960938 79.882812 1.132812 79.542969 1.339844 C 79.164062 1.542969 78.789062 1.851562 78.449219 2.230469 C 78.105469 2.640625 77.796875 2.949219 77.558594 3.292969 C 77.457031 3.464844 77.320312 3.636719 77.21875 3.808594 C 77.148438 3.910156 77.082031 4.015625 77.011719 4.117188 C 76.84375 4.390625 76.671875 4.632812 76.570312 4.90625 C 76.433594 5.179688 76.296875 5.523438 76.191406 5.902344 C 76.125 6.175781 76.054688 6.449219 76.023438 6.722656 C 75.988281 6.792969 75.988281 6.894531 75.953125 6.964844 C 75.851562 7.410156 75.78125 7.855469 75.714844 8.472656 C 75.613281 9.332031 75.578125 10.222656 75.644531 11.21875 C 75.679688 11.664062 75.714844 12.214844 75.851562 12.726562 C 75.988281 13.207031 76.160156 13.6875 76.398438 14.132812 C 76.601562 14.511719 76.875 14.921875 77.25 15.367188 C 77.457031 15.644531 77.730469 15.882812 77.96875 16.125 L 78.175781 16.328125 C 78.824219 16.980469 79.609375 17.53125 80.566406 18.011719 C 81.011719 18.214844 81.488281 18.386719 82.070312 18.558594 C 82.617188 18.695312 83.195312 18.800781 83.640625 18.867188 C 84.050781 18.9375 84.496094 18.9375 85.074219 18.972656 C 85.210938 18.972656 85.316406 18.972656 85.453125 18.972656 C 85.554688 18.972656 85.65625 18.972656 85.757812 18.972656 C 86.101562 18.972656 86.410156 18.902344 86.648438 18.867188 C 87.09375 18.800781 87.535156 18.695312 88.015625 18.523438 C 88.492188 18.386719 88.972656 18.148438 89.414062 17.941406 C 89.621094 17.839844 89.859375 17.734375 90.097656 17.597656 C 90.269531 17.496094 90.441406 17.394531 90.578125 17.289062 L 90.679688 17.222656 C 91.054688 16.945312 91.429688 16.636719 91.910156 16.191406 C 92.320312 15.816406 92.628906 15.472656 92.898438 15.164062 C 93.277344 14.75 93.550781 14.238281 93.824219 13.789062 C 94.097656 13.3125 94.300781 12.796875 94.507812 12.316406 C 94.675781 11.902344 94.847656 11.457031 94.949219 11.046875 C 95.085938 10.566406 95.15625 10.050781 95.222656 9.570312 C 95.257812 9.160156 95.292969 8.714844 95.328125 8.199219 C 95.328125 7.648438 95.257812 7.101562 95.191406 6.65625 C 95.191406 6.3125 95.085938 5.933594 94.949219 5.488281 Z M 94.949219 5.488281 " fill-opacity="1" fill-rule="nonzero"/></g></svg>